<?xml version="1.0" encoding="utf-8"?>
<!-- Generator: Adobe Illustrator 28.0.0, SVG Export Plug-In . SVG Version: 6.00 Build 0)  -->
<svg version="1.1" id="Слой_1" xmlns="http://www.w3.org/2000/svg" xmlns:xlink="http://www.w3.org/1999/xlink" x="0px" y="0px"
	 viewBox="0 0 667.49 171.01" style="enable-background:new 0 0 667.49 171.01;" xml:space="preserve">
<style type="text/css">
	.st0{fill:#49A7AF;}
	.st1{fill-rule:evenodd;clip-rule:evenodd;fill:#116877;}
	.st2{fill-rule:evenodd;clip-rule:evenodd;fill:#49A7AF;}
	.st3{fill-rule:evenodd;clip-rule:evenodd;fill:#008AA6;}
	.st4{fill-rule:evenodd;clip-rule:evenodd;fill:#51A4AC;}
</style>
<g>
	<path class="st0" d="M195.58,59.23V8.61c0-2.08,0.71-3.81,2.14-5.18s3.12-2.05,5.08-2.05h17.96c2.56,0,4.92,0.4,7.09,1.19
		s4.06,1.92,5.66,3.38s2.87,3.25,3.79,5.37s1.38,4.49,1.38,7.11c0,2.55-0.69,4.88-2.07,7s-3.29,3.91-5.73,5.36
		c4.01,0.86,7.19,2.72,9.54,5.58c2.35,2.86,3.52,6.34,3.52,10.44c0,2.98-0.51,5.69-1.54,8.13c-1.03,2.44-2.51,4.52-4.46,6.23
		c-1.95,1.71-4.29,3.02-7.04,3.93c-2.75,0.91-5.79,1.36-9.12,1.36h-18.99c-1.96,0-3.66-0.68-5.08-2.05
		C196.3,63.04,195.58,61.32,195.58,59.23 M210.38,26.75h7c1.81,0,3.35-0.49,4.61-1.48s1.89-2.52,1.89-4.58s-0.61-3.59-1.83-4.58
		s-2.81-1.48-4.77-1.48h-6.91v12.12H210.38z M210.38,53.23h9.67c2.62,0,4.7-0.56,6.24-1.68c1.55-1.12,2.32-2.76,2.32-4.91
		c0-2.18-0.85-3.84-2.54-4.96c-1.69-1.12-3.73-1.68-6.11-1.68h-9.58L210.38,53.23L210.38,53.23z"/>
	<path class="st0" d="M249.7,59.23V8.61c0-2.08,0.71-3.81,2.14-5.18s3.12-2.05,5.08-2.05h23.09c2.08,0,3.79,0.63,5.13,1.89
		s2.01,2.92,2.01,4.98c0,2.21-0.68,3.92-2.03,5.12s-3.05,1.79-5.1,1.79H264.5v11.68h14.22c2.08,0,3.79,0.61,5.13,1.84
		s2.01,2.91,2.01,5.07s-0.65,3.84-1.96,5.05s-3.03,1.82-5.17,1.82H264.5V52.7h15.96c2.14,0,3.88,0.6,5.22,1.79
		c1.34,1.2,2.01,2.89,2.01,5.07c0,2.09-0.67,3.77-2.01,5.03c-1.34,1.26-3.05,1.88-5.13,1.88h-23.63c-1.96,0-3.66-0.68-5.08-2.05
		C250.42,63.04,249.7,61.32,249.7,59.23"/>
	<path class="st0" d="M290.94,57.08c0-2.08,0.62-3.86,1.87-5.35c1.25-1.49,2.94-2.23,5.08-2.23c1.1,0,2.17,0.25,3.21,0.75
		c1.96,0.86,3.91,1.58,5.84,2.17s4.03,0.88,6.29,0.88c2.91,0,5.12-0.56,6.62-1.68s2.25-2.61,2.25-4.47c0-4.84-4.41-7.26-13.24-7.26
		c-3.09,0-5.33-0.56-6.71-1.67c-1.38-1.11-2.07-2.62-2.07-4.53c0-2.41,0.7-4.18,2.1-5.32s3.38-1.72,5.94-1.72
		c3.31,0,5.97-0.61,7.98-1.82c2.01-1.22,3.02-2.81,3.02-4.78c0-1.91-0.61-3.41-1.83-4.49s-2.86-1.62-4.91-1.62
		c-1.46,0-2.72,0.21-3.8,0.61c-1.07,0.41-2.08,0.87-3.04,1.37c-0.95,0.5-1.87,0.95-2.75,1.34c-0.88,0.4-1.84,0.59-2.88,0.59
		c-1.88,0-3.41-0.66-4.6-1.98s-1.79-2.98-1.79-4.99c0-1.45,0.48-2.82,1.45-4.12s2.35-2.45,4.15-3.46s3.99-1.81,6.57-2.42
		c2.59-0.61,5.5-0.91,8.74-0.91c3.15,0,5.99,0.42,8.51,1.27c2.53,0.84,4.69,2.03,6.49,3.56s3.17,3.37,4.12,5.52
		c0.95,2.15,1.43,4.54,1.43,7.15c0,3.51-0.78,6.52-2.34,9.03c-1.56,2.52-3.89,4.42-6.98,5.71c4.25,1.15,7.36,2.94,9.34,5.38
		c1.98,2.44,2.96,5.74,2.96,9.88c0,3.25-0.61,6.14-1.83,8.67c-1.22,2.53-2.92,4.66-5.1,6.39c-2.19,1.73-4.8,3.05-7.85,3.98
		c-3.05,0.92-6.43,1.39-10.14,1.39c-2.62,0-5.25-0.23-7.89-0.7c-2.64-0.46-5.02-1.15-7.13-2.06c-2.11-0.91-3.82-2.05-5.13-3.41
		C291.59,60.41,290.94,58.85,290.94,57.08"/>
	<path class="st0" d="M341.04,59.24c0-1.75,0.64-3.28,1.92-4.59s3.25-1.96,5.9-1.96h0.72c0.86-1.39,1.64-3.16,2.35-5.31
		c0.7-2.15,1.29-4.85,1.76-8.1l4.59-29.96c0.48-2.95,1.38-5.01,2.72-6.18s2.99-1.76,4.95-1.76h30.01c2.26,0,4.1,0.68,5.53,2.05
		s2.14,3.09,2.14,5.17v44.09h3.3c2.32,0,4.12,0.62,5.39,1.87c1.28,1.25,1.92,2.81,1.92,4.68v15.92c0,2.08-0.59,3.78-1.78,5.1
		s-2.88,1.98-5.08,1.98c-2.08,0-3.74-0.65-4.97-1.95c-1.23-1.3-1.85-3-1.85-5.1v-8.73h-45.83v8.64c0,2.13-0.59,3.85-1.78,5.17
		c-1.18,1.31-2.87,1.97-5.06,1.97c-2.08,0-3.73-0.65-4.98-1.96c-1.24-1.31-1.87-3.02-1.87-5.13L341.04,59.24L341.04,59.24z
		 M365.13,52.69h23.7V15.16h-16.54l-4.34,25.72c-0.27,1.61-0.6,3.56-0.99,5.83C366.58,48.97,365.97,50.97,365.13,52.69"/>
	<path class="st0" d="M419.19,59.23V8.61c0-2.08,0.71-3.81,2.14-5.18c1.43-1.37,3.12-2.05,5.08-2.05h23.09
		c2.08,0,3.79,0.63,5.13,1.89s2.01,2.92,2.01,4.98c0,2.21-0.68,3.92-2.03,5.12s-3.05,1.79-5.1,1.79H434v11.68h14.22
		c2.08,0,3.79,0.61,5.13,1.84s2.01,2.91,2.01,5.07s-0.65,3.84-1.96,5.05s-3.03,1.82-5.17,1.82h-14.22V52.7h15.96
		c2.14,0,3.88,0.6,5.22,1.79c1.34,1.2,2.01,2.89,2.01,5.07c0,2.09-0.67,3.77-2.01,5.03c-1.34,1.26-3.05,1.88-5.13,1.88h-23.63
		c-1.96,0-3.66-0.68-5.08-2.05C419.9,63.04,419.19,61.32,419.19,59.23"/>
	<path class="st0" d="M195.58,148.18v-50.9c0-2.38,0.68-4.23,2.05-5.57c1.37-1.34,3.15-2.01,5.35-2.01c2.2,0,3.98,0.67,5.35,2.01
		c1.37,1.34,2.05,3.19,2.05,5.57v18.32l20.15-21.89c1.4-1.52,2.59-2.56,3.57-3.14c0.98-0.58,2.17-0.87,3.57-0.87
		c0.86,0,1.73,0.19,2.61,0.58s1.66,0.91,2.36,1.58s1.28,1.43,1.74,2.3c0.46,0.86,0.69,1.74,0.69,2.63c0,1.1-0.32,2.2-0.96,3.3
		c-0.64,1.1-1.3,1.98-1.98,2.63l-17.61,17.74l21,22.82c1.57,1.69,2.36,3.42,2.36,5.17c0,2.14-0.73,3.89-2.18,5.26
		c-1.46,1.37-3.31,2.05-5.57,2.05c-0.48,0-0.99-0.04-1.54-0.13c-0.55-0.09-1.16-0.33-1.83-0.71c-0.67-0.39-1.47-1.01-2.41-1.87
		s-2.06-2.02-3.37-3.48l-20.6-23.18v21.8c0,2.38-0.69,4.23-2.07,5.57c-1.38,1.34-3.16,2.01-5.33,2.01c-2.2,0-3.98-0.67-5.35-2.01
		C196.27,152.42,195.58,150.56,195.58,148.18"/>
	<path class="st0" d="M249.7,149.7c0-1.46,0.23-2.98,0.69-4.57c0.46-1.59,0.96-3.09,1.49-4.49L267.75,98c1.1-2.92,2.5-5.18,4.21-6.8
		s3.93-2.43,6.66-2.43c2.62,0,4.78,0.81,6.49,2.43s3.11,3.89,4.21,6.8l15.87,42.64c0.53,1.46,1.03,2.95,1.49,4.49
		c0.46,1.53,0.69,3.06,0.69,4.57c0,1.86-0.65,3.34-1.96,4.43s-3.02,1.64-5.13,1.64c-2.26,0-3.94-0.63-5.04-1.91
		c-1.1-1.27-2.02-3.05-2.76-5.36l-1.78-5.71h-24.3l-1.74,5.45c-0.92,2.89-1.98,4.87-3.17,5.93s-2.75,1.59-4.68,1.59
		c-2.14,0-3.86-0.54-5.17-1.61C250.35,153.07,249.7,151.59,249.7,149.7 M270.78,129.01h15.51l-7.4-23.81h-0.18L270.78,129.01z"/>
	<path class="st0" d="M310.86,148.18v-50.9c0-2.38,0.68-4.23,2.05-5.57s3.15-2.01,5.35-2.01s3.98,0.67,5.35,2.01
		c1.37,1.34,2.05,3.19,2.05,5.57v18.32l20.15-21.89c1.4-1.52,2.59-2.56,3.57-3.14s2.17-0.87,3.57-0.87c0.86,0,1.73,0.19,2.61,0.58
		c0.88,0.39,1.66,0.91,2.36,1.58c0.7,0.67,1.28,1.43,1.74,2.3c0.46,0.86,0.69,1.74,0.69,2.63c0,1.1-0.32,2.2-0.96,3.3
		c-0.64,1.1-1.3,1.98-1.98,2.63l-17.61,17.74l21,22.82c1.57,1.69,2.36,3.42,2.36,5.17c0,2.14-0.73,3.89-2.18,5.26
		c-1.46,1.37-3.31,2.05-5.57,2.05c-0.48,0-0.99-0.04-1.54-0.13c-0.55-0.09-1.16-0.33-1.83-0.71c-0.67-0.39-1.47-1.01-2.41-1.87
		s-2.06-2.02-3.37-3.48l-20.6-23.18v21.8c0,2.38-0.69,4.23-2.07,5.57c-1.38,1.34-3.16,2.01-5.33,2.01c-2.2,0-3.98-0.67-5.35-2.01
		C311.54,152.42,310.86,150.56,310.86,148.18"/>
	<path class="st0" d="M386.38,148c0-1.75,0.64-3.28,1.92-4.59s3.25-1.96,5.9-1.96h0.72c0.86-1.39,1.64-3.16,2.35-5.31
		c0.7-2.15,1.29-4.85,1.76-8.1l4.59-29.96c0.48-2.95,1.38-5.01,2.72-6.18s2.99-1.76,4.95-1.76h30.01c2.26,0,4.1,0.68,5.53,2.05
		s2.14,3.09,2.14,5.17v44.09h3.3c2.32,0,4.12,0.62,5.39,1.87c1.28,1.25,1.92,2.81,1.92,4.68v15.92c0,2.08-0.59,3.78-1.78,5.1
		s-2.88,1.98-5.08,1.98c-2.08,0-3.74-0.65-4.97-1.95s-1.85-3-1.85-5.1v-8.73h-45.83v8.64c0,2.13-0.59,3.85-1.78,5.17
		c-1.18,1.31-2.87,1.97-5.06,1.97c-2.08,0-3.73-0.65-4.98-1.96c-1.24-1.31-1.87-3.02-1.87-5.13L386.38,148L386.38,148z
		 M410.46,141.45h23.7v-37.54h-16.54l-4.34,25.72c-0.27,1.61-0.6,3.56-0.99,5.83C411.91,137.73,411.3,139.73,410.46,141.45"/>
	<path class="st0" d="M462.87,122.73c0-5.17,0.76-9.86,2.27-14.06c1.52-4.21,3.68-7.78,6.49-10.72s6.17-5.21,10.1-6.8
		c3.92-1.59,8.29-2.39,13.11-2.39c4.81,0,9.17,0.81,13.09,2.43c3.92,1.62,7.27,3.9,10.06,6.84c2.79,2.94,4.95,6.5,6.48,10.68
		c1.53,4.18,2.29,8.85,2.29,14.02c0,5.05-0.75,9.66-2.25,13.82c-1.5,4.16-3.63,7.73-6.39,10.72s-6.1,5.3-10.02,6.95
		s-8.34,2.47-13.27,2.47c-4.81,0-9.18-0.81-13.11-2.43c-3.92-1.62-7.29-3.91-10.1-6.89c-2.81-2.97-4.97-6.55-6.49-10.72
		C463.63,132.48,462.87,127.84,462.87,122.73 M478.74,122.73c0,3.02,0.37,5.76,1.11,8.21c0.74,2.46,1.81,4.58,3.21,6.37
		s3.08,3.17,5.06,4.15s4.21,1.46,6.71,1.46c2.56,0,4.84-0.5,6.84-1.51c2.01-1.01,3.69-2.41,5.06-4.2s2.4-3.93,3.1-6.41
		c0.7-2.49,1.05-5.18,1.05-8.08s-0.35-5.58-1.05-8.03c-0.7-2.46-1.73-4.59-3.1-6.41c-1.37-1.82-3.05-3.23-5.06-4.24
		c-2.01-1.01-4.32-1.51-6.93-1.51c-2.5,0-4.72,0.49-6.66,1.46c-1.95,0.98-3.62,2.36-5.02,4.15s-2.47,3.93-3.21,6.41
		C479.11,117.05,478.74,119.77,478.74,122.73"/>
	<path class="st0" d="M530.23,148.76c0-0.36,0.03-0.88,0.09-1.56s0.18-1.63,0.36-2.85s0.42-2.74,0.74-4.57
		c0.31-1.83,0.71-4.08,1.18-6.75l5.75-33.12c0.68-3.83,1.86-6.49,3.52-7.98c1.66-1.49,3.8-2.23,6.42-2.23c1.75,0,3.23,0.27,4.44,0.8
		c1.2,0.53,2.23,1.35,3.08,2.45c0.85,1.1,1.6,2.47,2.27,4.12c0.67,1.65,1.38,3.56,2.12,5.73l8.11,25.23h0.18l7.22-22.38
		c0.92-2.91,1.78-5.39,2.56-7.44c0.79-2.05,1.62-3.7,2.5-4.95s1.88-2.16,3.01-2.72s2.53-0.85,4.21-0.85c3.04,0,5.46,0.74,7.24,2.21
		c1.79,1.47,3.04,4.11,3.75,7.91l7.03,41.68c0.3,1.79,0.56,3.31,0.77,4.55c0.21,1.25,0.31,2.12,0.31,2.63
		c0,1.84-0.68,3.47-2.03,4.92c-1.35,1.44-3.11,2.16-5.26,2.16c-3.01,0-5.1-0.83-6.27-2.5c-1.17-1.66-2.03-4.29-2.58-7.89
		l-4.32-28.22h-0.18l-10.12,32.41c-0.68,2.14-1.63,3.71-2.83,4.7c-1.2,1-2.91,1.49-5.1,1.49c-2.32,0-4.07-0.53-5.26-1.58
		s-2.11-2.68-2.76-4.88l-10.07-32.14h-0.18l-4.37,29.02c-0.3,2.14-0.73,3.83-1.31,5.08s-1.23,2.21-1.96,2.88
		c-0.73,0.67-1.55,1.11-2.47,1.31c-0.92,0.21-1.87,0.31-2.85,0.31c-1.96,0-3.6-0.71-4.92-2.14
		C530.89,152.2,530.23,150.58,530.23,148.76"/>
	<path class="st0" d="M609.8,149.7c0-1.46,0.23-2.98,0.69-4.57c0.46-1.59,0.96-3.09,1.49-4.49L627.86,98c1.1-2.92,2.5-5.18,4.21-6.8
		s3.93-2.43,6.66-2.43c2.62,0,4.78,0.81,6.49,2.43c1.71,1.62,3.11,3.89,4.21,6.8l15.87,42.64c0.53,1.46,1.03,2.95,1.49,4.49
		c0.46,1.53,0.69,3.06,0.69,4.57c0,1.86-0.65,3.34-1.96,4.43s-3.02,1.64-5.13,1.64c-2.26,0-3.94-0.63-5.04-1.91
		c-1.1-1.27-2.02-3.05-2.76-5.36l-1.78-5.71h-24.3l-1.74,5.45c-0.92,2.89-1.98,4.87-3.17,5.93s-2.75,1.59-4.68,1.59
		c-2.14,0-3.86-0.54-5.17-1.61C610.45,153.07,609.8,151.59,609.8,149.7 M630.89,129.01h15.51L639,105.2h-0.18L630.89,129.01z"/>
	<polygon class="st1" points="96.55,35.87 135.2,74.52 124.16,74.52 124.16,107.65 113.11,107.65 113.11,80.44 119.04,80.44 
		85.5,46.91 	"/>
	<path class="st2" d="M171.01,0v85.5c0,47.22-38.28,85.5-85.5,85.5S0,132.73,0,85.5C0,38.28,38.28,0,85.5,0H171.01z M85.5,21.38
		c-35.42,0-64.13,28.71-64.13,64.13s28.71,64.13,64.13,64.13s64.13-28.71,64.13-64.13S120.92,21.38,85.5,21.38"/>
	<polygon class="st3" points="88.27,81.5 82.74,74.6 59.28,75.98 55.14,81.5 46.85,81.5 85.51,42.85 124.16,81.5 113.11,81.5 
		113.11,114.63 93.79,114.63 93.79,81.5 	"/>
	<path class="st4" d="M74.46,51.13l38.65,38.65h-11.04v33.13H46.85V89.78H35.81L74.46,51.13z M75.73,75.98H59.44v38.65h17.12
		c1.95,0,3.71-0.27,5.27-0.8c1.56-0.53,2.88-1.29,3.95-2.26c1.07-0.98,1.89-2.14,2.46-3.51c0.57-1.36,0.86-2.87,0.86-4.53
		c0-2.39-0.59-4.4-1.77-6.02c-1.18-1.62-2.94-2.78-5.3-3.48c1.77-0.66,3.13-1.7,4.09-3.12c0.96-1.42,1.44-3.1,1.44-5.05
		c0-1.51-0.29-2.87-0.86-4.09c-0.57-1.21-1.37-2.25-2.4-3.09c-1.03-0.85-2.27-1.51-3.73-1.99C79.11,76.22,77.5,75.98,75.73,75.98
		 M75.95,97.84c1.58,0,2.86,0.45,3.84,1.35c0.98,0.9,1.46,2.13,1.46,3.67c0,1.55-0.49,2.77-1.46,3.67c-0.98,0.9-2.26,1.35-3.84,1.35
		h-8.78V97.84H75.95z M75.01,82.71c1.36,0,2.49,0.39,3.37,1.16c0.88,0.77,1.33,1.8,1.33,3.09c0,1.29-0.44,2.32-1.33,3.09
		c-0.88,0.77-2.01,1.16-3.37,1.16h-7.84v-8.5H75.01z"/>
</g>
</svg>
